#!OML:ASF E:\motion texture\Top Level 1\Subject 1\Session 1\male.ASF
:FULLY-SPECIFIED
:DEGREES
593
root -11.9666 18.032 7.34543 5.75495 -72.1741 2.35173
lowerback 2.04041 0.24836 -2.99141
upperback -2.34171 0.247058 1.15986
thorax -3.57629 0.213726 2.8626
lowerneck -9.03235 -12.4759 -12.8782
upperneck 4.19619 -16.4531 14.6233
head 5.03319 -7.76775 5.13319
rclavicle -2.5345e-015 4.37326e-015
rhumerus -56.6549 -36.6095 -33.0539
rradius 21.2524
rwrist 6.67229
rhand -20.5718 -39.1841
rfingers 7.12502
rthumb 5.7878 -69.085
lclavicle -2.5345e-015 4.37326e-015
lhumerus -48.1818 29.2087 51.2417
lradius 23.0087
lwrist -34.2928
lhand -10.0084 18.5262
lfingers 7.12502
lthumb 15.9755 47.8875
rfemur -29.9581 -4.36758 9.84488
rtibia 15.8421
rfoot -3.36015 -25.009
rtoes 9.57422
lfemur -0.656398 -8.23358 -18.7318
ltibia 16.9807
lfoot -12.5662 -1.70955
ltoes -17.1873
594
root -12.0921 18.0259 7.32895 5.42831 -72.4872 2.75148
lowerback 2.04723 0.108192 -3.00656
upperback -2.29684 0.0625839 1.25928
thorax -3.52066 0.121982 2.98345
lowerneck -9.08094 -12.3867 -12.764
upperneck 4.36924 -16.3548 14.5747
head 5.06691 -7.71454 5.10924
rclavicle 2.25869e-014 -5.56597e-015
rhumerus -57.6447 -36.7881 -31.4107
rradius 21.0182
rwrist 7.36662
rhand -20.4373 -39.2759
rfingers 7.12502
rthumb 5.91762 -69.1732
lclavicle 2.25869e-014 -5.56597e-015
lhumerus -47.6793 29.462 51.1489
lradius 22.8912
lwrist -34.4892
lhand -10.3027 18.7764
lfingers 7.12502
lthumb 15.6921 48.1601
rfemur -29.9909 -3.96324 9.81044
rtibia 15.2179
rfoot -3.16901 -25.0103
rtoes 9.55346
lfemur -0.315317 -8.19285 -18.7386
ltibia 17.0241
lfoot -12.4772 -1.63223
ltoes -17.9378
595
root -12.2187 18.0204 7.31164 5.13091 -72.8094 3.11891
lowerback 2.05198 -0.0238618 -3.00897
upperback -2.25319 -0.110664 1.35901
thorax -3.46523 0.0354088 3.09668
lowerneck -9.12955 -12.3016 -12.658
upperneck 4.54893 -16.2623 14.5287
head 5.1045 -7.66395 5.0863
rclavicle 1.47598e-014 -3.18055e-015
rhumerus -58.5134 -36.8946 -29.9332
rradius 20.7698
rwrist 8.04019
rhand -20.2822 -39.33
rfingers 7.12502
rthumb 6.0674 -69.2232
lclavicle 1.47598e-014 -3.18055e-015
lhumerus -47.1627 29.7097 51.0837
lradius 22.8059
lwrist -34.6259
lhand -10.6193 19.0406
lfingers 7.12502
lthumb 15.3872 48.448
rfemur -30.0151 -3.58565 9.82094
rtibia 14.671
rfoot -2.96551 -24.9619
rtoes 9.53531
lfemur 0.0115103 -8.15575 -18.7327
ltibia 17.0962
lfoot -12.3663 -1.5449
ltoes -18.6965
596
root -12.3463 18.0154 7.29354 4.86654 -73.141 3.4507
lowerback 2.05441 -0.14751 -2.99858
upperback -2.21177 -0.272305 1.4595
thorax -3.41109 -0.0457513 3.20274
lowerneck -9.17496 -12.2204 -12.5598
upperneck 4.73345 -16.1754 14.4844
head 5.14475 -7.61613 5.06436
rclavicle 5.58336e-014 4.77083e-015
rhumerus -59.2678 -36.9423 -28.6165
rradius 20.5139
rwrist 8.69687
rhand -20.1069 -39.3544
rfingers 7.12502
rthumb 6.23661 -69.2426
lclavicle 5.58336e-014 4.77083e-015
lhumerus -46.6343 29.9477 51.05
lradius 22.7546
lwrist -34.698
lhand -10.9529 19.3252
lfingers 7.12502
lthumb 15.0659 48.757
rfemur -30.0307 -3.23869 9.87817
rtibia 14.1986
rfoot -2.74901 -24.858
rtoes 9.52216
lfemur 0.321917 -8.12107 -18.7136
ltibia 17.199
lfoot -12.2315 -1.44766
ltoes -19.4621
597
root -12.475 18.0112 7.27465 4.63751 -73.4807 3.74445
lowerback 2.0547 -0.263898 -2.97557
upperback -2.17231 -0.423888 1.56095
thorax -3.35809 -0.122253 3.302
lowerneck -9.22136 -12.1432 -12.4683
upperneck 4.92548 -16.094 14.4398
head 5.18885 -7.57082 5.04241
rclavicle 2.31087e-014 5.96354e-015
rhumerus -59.9176 -36.9535 -27.444
rradius 20.2496
rwrist 9.35478
rhand -19.9176 -39.345
rfingers 7.12502
rthumb 6.4194 -69.2277
lclavicle 2.31087e-014 5.96354e-015
lhumerus -46.0942 30.1733 51.0523
lradius 22.7378
lwrist -34.6989
lhand -11.3029 19.6345
lfingers 7.12502
lthumb 14.7287 49.0913
rfemur -30.0355 -2.92337 9.98188
rtibia 13.7963
rfoot -2.51934 -24.6971
rtoes 9.51257
lfemur 0.614057 -8.08762 -18.6809
ltibia 17.3349
lfoot -12.07 -1.34213
ltoes -20.2299
598
root -12.6048 18.0076 7.25497 4.44816 -73.8281 3.99647
lowerback 2.05157 -0.373162 -2.94052
upperback -2.13525 -0.565598 1.6639
thorax -3.30609 -0.19415 3.39537
lowerneck -9.26521 -12.0696 -12.3837
upperneck 5.12248 -16.0176 14.3953
head 5.23541 -7.52806 5.02086
rclavicle -4.22914e-014 -1.98785e-014
rhumerus -60.4624 -36.9278 -26.4252
rradius 19.9841
rwrist 9.99742
rhand -19.7202 -39.3066
rfingers 7.12502
rthumb 6.60995 -69.1834
lclavicle -4.22914e-014 -1.98785e-014
lhumerus -45.5415 30.3779 51.0978
lradius 22.7562
lwrist -34.6184
lhand -11.6692 19.9631
lfingers 7.12502
lthumb 14.3757 49.4453
rfemur -30.0294 -2.6393 10.1316
rtibia 13.4607
rfoot -2.28194 -24.4821
rtoes 9.51856
lfemur 0.884814 -8.05445 -18.6341
ltibia 17.5069
lfoot -11.8794 -1.22771
ltoes -20.9968
